<svg width="25" height="25" viewBox="0 0 25 25" fill="none" xmlns="http://www.w3.org/2000/svg">
<g id="car">
<g id="Vector 23">
<path d="M15.5078 7.48683L21.8552 8.66985C22.5123 8.98352 23.8507 9.92814 23.9469 11.1972C24.0431 12.4662 23.987 15.5797 23.9469 16.9778H21.3284C21.3284 18.2953 20.2481 20 18.2028 20C16.1575 20 15.0772 18.4566 15.0772 16.9778H10C10 18.4297 8.98015 20 7.0567 20C5.13326 20 3.90706 18.5104 3.90706 16.9778H1V10.6595C1 9.56956 1.5 7.78258 2.57261 7.78258C4.39988 7.78258 4.78457 7.7557 5.31352 8.29343C5.57005 8.55422 6.09802 9.08694 6.80419 9.56956L6.44354 5.60476C6.43553 5.25523 6.57818 4.54542 7.21292 4.5024C7.84766 4.45939 8.13457 5.00429 8.19869 5.28212L9.5451 10.5519C11.5647 10.5788 12.6226 10.5519 13.1516 10.5519C13.8947 10.5519 14.4445 10.1196 15.0269 9.23185C15.328 8.77294 15.5324 8.19233 15.5078 7.48683Z" fill="url(#paint0_linear_610_10925)"/>
<path d="M21.3284 16.9778H23.9469C23.987 15.5797 24.0431 12.4662 23.9469 11.1972C23.8507 9.92814 22.5123 8.98352 21.8552 8.66985L15.5078 7.48683C15.5324 8.19233 15.328 8.77294 15.0269 9.23185M21.3284 16.9778C21.3284 15.526 20.2224 14 18.2028 14C16.1831 14 15.0772 15.5528 15.0772 16.9778M21.3284 16.9778C21.3284 18.2953 20.2481 20 18.2028 20C16.1575 20 15.0772 18.4566 15.0772 16.9778M15.0772 16.9778H10M10 16.9778C10 15.8599 9.1134 14 7.0567 14C5 14 3.90706 15.4453 3.90706 16.9778M10 16.9778C10 18.4297 8.98015 20 7.0567 20C5.13326 20 3.90706 18.5104 3.90706 16.9778M3.90706 16.9778H1V10.6595C1 9.56956 1.5 7.78258 2.57261 7.78258C4.39988 7.78258 4.78457 7.7557 5.31352 8.29343C5.57005 8.55422 6.09802 9.08694 6.80419 9.56956M9.5451 10.5519C11.5647 10.5788 12.6226 10.5519 13.1516 10.5519C13.8947 10.5519 14.4445 10.1196 15.0269 9.23185M9.5451 10.5519C8.50496 10.5381 7.5541 10.0821 6.80419 9.56956M9.5451 10.5519L8.19869 5.28212C8.13457 5.00429 7.84766 4.45939 7.21292 4.5024C6.57818 4.54542 6.43553 5.25523 6.44354 5.60476L6.80419 9.56956M15.0269 9.23185L12.6316 7.40909M12.6316 7.40909L13.2632 6.68182M12.6316 7.40909L12 8.13636" stroke="#29DD45" stroke-width="2" stroke-linecap="round"/>
</g>
</g>
<defs>
<linearGradient id="paint0_linear_610_10925" x1="12.5" y1="4.5" x2="12.5" y2="20.5" gradientUnits="userSpaceOnUse">
<stop stop-color="#CAF0C9"/>
<stop offset="1" stop-color="#ECF9EC"/>
</linearGradient>
</defs>
</svg>
