<svg width="27" height="21" viewBox="0 0 27 21" fill="none" xmlns="http://www.w3.org/2000/svg">
<g id="cart">
<g id="Vector 3">
<path d="M21.4034 15.1786H12.3466C11.0268 15.1786 9.86198 14.316 9.47704 13.0536L6.75 4.11024H22.9489C24.9641 4.11024 26.4062 6.05762 25.8184 7.98524L24.273 13.0536C23.888 14.316 22.7232 15.1786 21.4034 15.1786Z" fill="white"/>
<path d="M0 1.03571H3.5282C4.78751 1.03571 5.91278 1.82219 6.34552 3.00482L6.75 4.11024M6.75 4.11024L9.47704 13.0536C9.86198 14.316 11.0268 15.1786 12.3466 15.1786H21.4034C22.7232 15.1786 23.888 14.316 24.273 13.0536L25.8184 7.98524C26.4062 6.05762 24.9641 4.11024 22.9489 4.11024H6.75Z" stroke="white" stroke-width="2"/>
</g>
<circle id="Ellipse 2" cx="12.8573" cy="19.0357" r="1.92857" fill="white"/>
<circle id="Ellipse 3" cx="21.2142" cy="19.0357" r="1.92857" fill="white"/>
</g>
</svg>
