<svg width="25" height="25" viewBox="0 0 25 25" fill="none" xmlns="http://www.w3.org/2000/svg">
<g id="chair" clip-path="url(#clip0_610_10904)">
<path id="Rectangle 4" d="M4.46098 15.4239L4.46097 4.28251C4.46097 4.28251 10.0955 1.09928 12.5103 1.09928C14.9251 1.09928 20.5596 4.28251 20.5596 4.28251L20.5596 15.4239L12.5103 17.0155L4.46098 15.4239Z" fill="url(#paint0_linear_610_10904)"/>
<path id="Vector 11" d="M4 24.5V23.1112M4 23.1112C5.77083 21.8381 10.0208 21.0279 12.8542 21.0279C15.4767 21.0279 18.9084 21.722 20.6216 22.8349C20.8711 22.997 21 23.2833 21 23.5809V24.5V14.4514M4 23.1112V14.4514M21 14.4514C21 14.4514 19.9375 16.5346 12.8542 16.5346M21 14.4514V9.92986M12.8542 16.5346C5.76517 16.5346 4 14.4514 4 14.4514M12.8542 16.5346V10.6243M4 14.4514V9.92986M4 9.92986V4.54108C4 4.22298 4.14875 3.92124 4.41999 3.75505C6.06763 2.74557 9.49044 1.5 12.8542 1.5C16.2185 1.5 19.2479 2.74601 20.6471 3.75559C20.8798 3.92348 21 4.19949 21 4.48641V9.92986M4 9.92986C4 9.92986 10.8 9.92987 12.8542 10.6243M12.8542 10.6243C14.9572 9.92987 21 9.92986 21 9.92986" stroke="#32B6FF" stroke-width="2" stroke-linecap="round"/>
</g>
<defs>
<linearGradient id="paint0_linear_610_10904" x1="8.90415" y1="5.3516" x2="10.6498" y2="17.2885" gradientUnits="userSpaceOnUse">
<stop stop-color="#C9E9F0"/>
<stop offset="1" stop-color="#ECF6F9"/>
</linearGradient>
<clipPath id="clip0_610_10904">
<rect width="25" height="25" fill="white"/>
</clipPath>
</defs>
</svg>
