<svg width="0" height="0" class="hidden">
  <symbol fill="none" xmlns="http://www.w3.org/2000/svg" viewBox="0 0 20 20" id="instagram">
    <g>
      <rect x=".5" y=".5" width="19" height="19" rx="4.5"></rect>
      <circle cx="10" cy="10" r="4.5"></circle>
      <circle cx="16" cy="4" r=".5"></circle>
    </g>
  </symbol>
  <symbol fill="none" xmlns="http://www.w3.org/2000/svg" viewBox="0 0 12 20" id="facebook">
    <path d="M7.5 19.5h-3A.5.5 0 0 1 4 19v-7a.5.5 0 0 0-.5-.5h-2A.5.5 0 0 1 1 11V8.5a.5.5 0 0 1 .5-.5h2a.5.5 0 0 0 .5-.5V5C4 3 5.5.5 7.5.5H11a.5.5 0 0 1 .5.5v2.5a.5.5 0 0 1-.5.5H9c-.8 0-1 .667-1 1v2.5a.5.5 0 0 0 .5.5h2.424a.5.5 0 0 1 .495.57l-.358 2.5a.5.5 0 0 1-.495.43H8.5a.5.5 0 0 0-.5.5v7a.5.5 0 0 1-.5.5Z"></path>
  </symbol>
  <symbol fill="none" xmlns="http://www.w3.org/2000/svg" viewBox="0 0 25 18" id="youtube">
    <g clip-rule="evenodd" stroke-miterlimit="10" stroke-linecap="round" stroke-linejoin="round">
      <path d="M23.02 2.81c-.624-1.076-1.3-1.274-2.678-1.349-1.377-.09-4.84-.127-7.84-.127-3.005 0-6.47.037-7.845.127-1.376.077-2.053.273-2.683 1.35C1.33 3.886 1 5.736 1 8.996v.012c0 3.246.331 5.11.974 6.173.628 1.075 1.306 1.271 2.683 1.362 1.375.076 4.839.122 7.845.122 3 0 6.463-.046 7.841-.122 1.379-.09 2.055-.287 2.679-1.362.65-1.064.978-2.928.978-6.173v-.012c-.002-3.26-.328-5.11-.98-6.187v0Z"></path>
      <path d="M10.2 12.833V5.167L16.331 9 10.2 12.833Z"></path>
    </g>
  </symbol>
    <symbol fill="none" xmlns="http://www.w3.org/2000/svg" viewBox="0 0 22 22" id="user">
    <g>
      <path d="M10.75 20.919H2.751c-1.358 0-2.298-1.337-1.512-2.444 1.803-2.541 5.06-4.53 9.511-4.53 4.45 0 7.707 1.989 9.511 4.53.786 1.107-.154 2.444-1.512 2.444H10.75Z"></path>
      <circle cx="11.04" cy="6.973" r="6.473"></circle>
    </g>
  </symbol>
</svg>