<svg width="19" height="18" viewBox="0 0 19 18" fill="none" xmlns="http://www.w3.org/2000/svg">
<path id="Star 1" d="M8.54894 0.83858C8.8483 -0.0827303 10.1517 -0.0827305 10.4511 0.83858L11.8574 5.16685C11.9913 5.57887 12.3752 5.85783 12.8085 5.85783H17.3595C18.3282 5.85783 18.731 7.09745 17.9473 7.66685L14.2654 10.3419C13.9149 10.5965 13.7683 11.0479 13.9021 11.4599L15.3085 15.7882C15.6078 16.7095 14.5533 17.4756 13.7696 16.9062L10.0878 14.2312C9.7373 13.9765 9.2627 13.9765 8.91221 14.2312L5.23037 16.9062C4.44665 17.4756 3.39217 16.7095 3.69153 15.7882L5.09787 11.4599C5.23174 11.0479 5.08508 10.5965 4.7346 10.3419L1.05275 7.66685C0.269035 7.09745 0.67181 5.85783 1.64053 5.85783H6.19155C6.62477 5.85783 7.00873 5.57887 7.1426 5.16685L8.54894 0.83858Z" fill="#D03664"/>
</svg>
