<svg width="25" height="18" viewBox="0 0 25 18" fill="none" xmlns="http://www.w3.org/2000/svg">
<g id="youtube">
<path id="Vector" fill-rule="evenodd" clip-rule="evenodd" d="M23.0203 2.81036C22.3962 1.73404 21.7201 1.53625 20.3417 1.46112C18.9649 1.37066 15.5013 1.33386 12.5023 1.33386C9.49717 1.33386 6.03206 1.37066 4.65676 1.46112C3.28145 1.53778 2.60376 1.73404 1.9736 2.81036C1.33118 3.88669 1 5.7373 1 8.99695V9.00922C1 12.2551 1.33118 14.1195 1.9736 15.182C2.60223 16.2568 3.27991 16.4531 4.65676 16.5435C6.03206 16.6202 9.49563 16.6662 12.5023 16.6662C15.5013 16.6662 18.9649 16.6202 20.3432 16.5435C21.7216 16.4531 22.3978 16.2568 23.0218 15.182C23.6719 14.1179 24 12.2535 24 9.00922V8.99695C23.9985 5.7373 23.6719 3.88669 23.0203 2.81036V2.81036Z" stroke="#FFC5D6" stroke-miterlimit="10" stroke-linecap="round" stroke-linejoin="round"/>
<path id="Vector_2" fill-rule="evenodd" clip-rule="evenodd" d="M10.1992 12.8331V5.16699L16.3321 9.00007L10.1992 12.8331Z" stroke="#FFC5D6" stroke-miterlimit="10" stroke-linecap="round" stroke-linejoin="round"/>
</g>
</svg>
