<svg width="31" height="21" viewBox="0 0 31 21" fill="none" xmlns="http://www.w3.org/2000/svg">
<g id="&#209;&#129;omparison">
<path id="Vector 4" d="M4.2701 14.3295H2.5257C1.80553 14.3295 1.33764 15.0631 1.73654 15.6627C2.98717 17.5427 5.159 19.4472 7.5397 19.4472C9.92041 19.4472 12.0922 17.5427 13.3429 15.6627C13.7418 15.0631 13.2739 14.3295 12.5537 14.3295H10.8093M4.2701 14.3295H7.5397H10.8093M4.2701 14.3295L6.61013 8.4286C6.94396 7.58676 8.13545 7.58676 8.46928 8.4286L10.8093 14.3295" stroke="white" stroke-width="2"/>
<path id="Vector 8" d="M20.1915 14.3295H18.4471C17.7269 14.3295 17.259 15.0631 17.6579 15.6627C18.9086 17.5427 21.0804 19.4472 23.4611 19.4472C25.8418 19.4472 28.0136 17.5427 29.2643 15.6627C29.6632 15.0631 29.1953 14.3295 28.4751 14.3295H26.7307M20.1915 14.3295H23.4611H26.7307M20.1915 14.3295L22.5315 8.4286C22.8653 7.58676 24.0568 7.58676 24.3907 8.4286L26.7307 14.3295" stroke="white" stroke-width="2"/>
<circle id="Ellipse 6" cx="15.7848" cy="3.44747" r="2.41176" stroke="white" stroke-width="2"/>
<path id="Vector 6" d="M6.68701 4.93117L12.9419 3.79391" stroke="white" stroke-width="2" stroke-linecap="round"/>
<path id="Vector 7" d="M18.6279 3.79391L24.3142 4.93117" stroke="white" stroke-width="2" stroke-linecap="round"/>
</g>
</svg>
